<svg width="324" height="261" xmlns="http://www.w3.org/2000/svg"><g fill="none" fill-rule="evenodd"><g opacity=".6" stroke="#A3B1BF" stroke-dasharray="9.3" stroke-linejoin="round" stroke-width="1.2"><path d="M172.3 222a91.3 91.3 0 1 1 0-182.5 91.3 91.3 0 0 1 0 182.5z"/><path d="M172.2 260a129.3 129.3 0 1 1 0-258.5 129.3 129.3 0 0 1 0 258.5z"/></g><path fill="#F5F5F5" d="M60.4 150.4l15.5-.8-11.3 10.6z"/><path stroke="#A3B1BF" stroke-width="1.2" stroke-linejoin="round" d="M60.4 150.4l15.5-.8-11.3 10.6z"/><path d="M17.1 160l15.5-6.5L43.1 178l-15.5 6.5z"/><path stroke="#A3B1BF" stroke-width="1.2" stroke-linejoin="round" d="M17.1 160l15.5-6.5L43.1 178l-15.5 6.5z"/><path fill="#F5F5F5" d="M30 148.1l3.8-1.6L49 182l-3.8 1.7z"/><path stroke="#A3B1BF" stroke-width="1.2" fill="#F0F2F5" stroke-linejoin="round" d="M30 148.1l3.8-1.6L49 182l-3.8 1.7z"/><path d="M33.5 192.2L48 186l18 42.6-14.2 6.1z"/><path stroke="#A3B1BF" stroke-width="1.2" stroke-linejoin="round" d="M33.5 192.2L48 186l18 42.6-14.2 6.1z"/><path d="M37 154l2.7-1 8.7 20.3-2.7 1.2z"/><path stroke="#A3B1BF" stroke-width="1.2" stroke-linejoin="round" d="M37 154l2.7-1 8.7 20.3-2.7 1.2z"/><path fill="#F5F5F5" d="M41.4 156.6l6.2-2.6.5 1.3-6 2.6z"/><path stroke="#A3B1BF" stroke-width="1.2" stroke-linejoin="round" d="M41.4 156.6l6.2-2.6.5 1.3-6 2.6z"/><path fill="#F5F5F5" d="M46.4 168.3l6.1-2.6.6 1.3-6.1 2.6z"/><path stroke="#A3B1BF" stroke-width="1.2" stroke-linejoin="round" d="M46.4 168.3l6.1-2.6.6 1.3-6.1 2.6z"/><path d="M38.1 183l2.6 6.1-1.4.6-2.6-6.1z"/><path stroke="#A3B1BF" stroke-width="1.2" stroke-linejoin="round" d="M38.1 183l2.6 6.1-1.4.6-2.6-6.1z"/><path d="M13.6 166.3l3.5-6.3 10.5 24.6-7-1.8z"/><path stroke="#A3B1BF" stroke-width="1.2" stroke-linejoin="round" d="M13.6 166.3l3.5-6.3 10.5 24.6-7-1.8z"/><path d="M13.6 166.3l-4.3-3L19.8 188l.9-5.2z"/><path stroke="#A3B1BF" stroke-width="1.2" stroke-linejoin="round" d="M13.6 166.3l-4.3-3L19.8 188l.9-5.2z"/><path d="M11 167.9l-4.3-1 3 7.4 2.5-3.8z"/><path stroke="#A3B1BF" stroke-width="1.2" stroke-linejoin="round" d="M11 167.9l-4.3-1 3 7.4 2.5-3.8z"/><path d="M16.6 181l-4.4-1 3.1 7.4 2.5-3.8z"/><path stroke="#A3B1BF" stroke-width="1.2" stroke-linejoin="round" d="M16.6 181l-4.4-1 3.1 7.4 2.5-3.8z"/><path fill="#F0F2F5" d="M40.4 154.2l1.9-.7 2.5 5.9-1.8.8z"/><path stroke="#A3B1BF" stroke-width="1.2" stroke-linejoin="round" d="M40.4 154.2l1.9-.7 2.5 5.9-1.8.8z"/><path fill="#F0F2F5" d="M45.4 166l1.9-.8 2.5 6-1.9.7z"/><path stroke="#A3B1BF" stroke-width="1.2" stroke-linejoin="round" d="M45.4 166l1.9-.8 2.5 6-1.9.7z"/><path d="M35 181.5l2.8-1.2 1.2 3-2.7 1.2z"/><path stroke="#A3B1BF" stroke-width="1.2" fill="#F5F5F5" stroke-linejoin="round" d="M35 181.5l2.8-1.2 1.2 3-2.7 1.2z"/><path d="M51.4 160c-4.7-10.9-4-22 1.3-27 .8-.9 2.8-2.3 4.4 1.4l16.6 39.2c1.4 3.4-.7 4.4-1.9 4.4-7.2.3-15.7-7-20.4-18z" fill="#F5F5F5"/><path d="M51.4 160c-4.7-10.9-4-22 1.3-27 .8-.9 2.8-2.3 4.4 1.4l16.6 39.2c1.4 3.4-.7 4.4-1.9 4.4-7.2.3-15.7-7-20.4-18z" stroke="#A3B1BF" stroke-width="1.2" fill="#F0F2F5" stroke-linejoin="round"/><path fill="#F0F2F5" d="M47 152.8l1.9-.8 6.5 15.4-1.8.8z"/><path stroke="#A3B1BF" stroke-width="1.2" stroke-linejoin="round" d="M47 152.8l1.9-.8 6.5 15.4-1.8.8z"/><path d="M77.3 151.4a2.2 2.2 0 1 1-1.7-4 2.2 2.2 0 0 1 1.7 4" fill="#A3B1BF"/><path fill-opacity=".6" fill="#A3B1BF" d="M46.7 191.8l-.7-1.6 1.6-.7.7 1.7z"/><path d="M46.7 191.8l-.7-1.6 1.6-.7.7 1.7z"/><path fill-opacity=".6" fill="#A3B1BF" d="M47.8 194.5l-.7-1.7 1.6-.6.7 1.6z"/><path d="M47.8 194.5l-.7-1.7 1.6-.6.7 1.6z"/><path fill-opacity=".6" fill="#A3B1BF" d="M48.9 197l-.7-1.5 1.6-.7.7 1.6z"/><path d="M48.9 197l-.7-1.5 1.6-.7.7 1.6z"/><path fill-opacity=".6" fill="#A3B1BF" d="M50 199.7l-.7-1.6 1.6-.7.7 1.6z"/><path d="M50 199.7l-.7-1.6 1.6-.7.7 1.6z"/><path fill-opacity=".6" fill="#A3B1BF" d="M44.3 192.9l-.7-1.6 1.6-.7.7 1.6z"/><path d="M44.3 192.9l-.7-1.6 1.6-.7.7 1.6z"/><path fill-opacity=".6" fill="#A3B1BF" d="M45.4 195.5l-.7-1.6 1.6-.7.7 1.6z"/><path d="M45.4 195.5l-.7-1.6 1.6-.7.7 1.6z"/><path fill-opacity=".6" fill="#A3B1BF" d="M46.5 198l-.7-1.5 1.6-.7.7 1.6z"/><path d="M45.8 196.5l1.6-.7.7 1.6-1.6.7z"/><path fill-opacity=".6" fill="#A3B1BF" d="M47.6 200.7l-.7-1.6 1.6-.7.7 1.6z"/><path d="M47.6 200.7l-.7-1.6 1.6-.7.7 1.6z"/><path fill-opacity=".6" fill="#A3B1BF" d="M41.8 193.9l-.6-1.6 1.6-.7.7 1.6z"/><path d="M41.8 193.9l-.6-1.6 1.6-.7.7 1.6z"/><path fill-opacity=".6" fill="#A3B1BF" d="M43 196.5l-.7-1.6 1.6-.7.7 1.6z"/><path d="M43 196.5l-.7-1.6 1.6-.7.7 1.6z"/><path fill-opacity=".6" fill="#A3B1BF" d="M44 199.1l-.6-1.6 1.6-.7.7 1.6z"/><path d="M44 199.1l-.6-1.6 1.6-.7.7 1.6z"/><path fill-opacity=".6" fill="#A3B1BF" d="M45.2 201.7l-.7-1.6 1.6-.7.7 1.6z"/><path d="M45.2 201.7l-.7-1.6 1.6-.7.7 1.6z"/><path fill-opacity=".6" fill="#A3B1BF" d="M39.4 195l-.7-1.7 1.7-.7.6 1.6z"/><path d="M39.4 195l-.7-1.7 1.7-.7.6 1.6z"/><path fill-opacity=".6" fill="#A3B1BF" d="M40.5 197.5L40 196l1.6-.7.6 1.6z"/><path d="M40.5 197.5L40 196l1.6-.7.6 1.6z"/><path fill-opacity=".6" fill="#A3B1BF" d="M41.6 200.1l-.6-1.6 1.6-.7.7 1.7z"/><path d="M41.6 200.1l-.6-1.6 1.6-.7.7 1.7z"/><path fill-opacity=".6" fill="#A3B1BF" d="M42.8 202.8L42 201l1.6-.6.7 1.6z"/><path d="M42.8 202.8L42 201l1.6-.6.7 1.6z"/><path fill-opacity=".6" fill="#A3B1BF" d="M37 196l-.7-1.7 1.6-.7.7 1.6z"/><path d="M37 196l-.7-1.7 1.6-.7.7 1.6z"/><path fill-opacity=".6" fill="#A3B1BF" d="M38.1 198.5l-.7-1.6 1.7-.6.6 1.6z"/><path d="M38.1 198.5l-.7-1.6 1.7-.6.6 1.6z"/><path fill-opacity=".6" fill="#A3B1BF" d="M39.2 201.2l-.6-1.6 1.6-.7.6 1.6z"/><path d="M39.2 201.2l-.6-1.6 1.6-.7.6 1.6z"/><path fill-opacity=".6" fill="#A3B1BF" d="M40.3 203.8l-.6-1.6 1.6-.7.7 1.6z"/><path d="M40.3 203.8l-.6-1.6 1.6-.7.7 1.6z"/><path fill-opacity=".6" fill="#A3B1BF" d="M52.5 205.5l-.7-1.6 1.6-.7.7 1.6z"/><path d="M52.5 205.5l-.7-1.6 1.6-.7.7 1.6z"/><path fill-opacity=".6" fill="#A3B1BF" d="M53.6 208.1l-.7-1.6 1.6-.6.7 1.6z"/><path d="M53.6 208.1l-.7-1.6 1.6-.6.7 1.6z"/><path fill-opacity=".6" fill="#A3B1BF" d="M54.7 210.8L54 209l1.6-.6.7 1.6z"/><path d="M54.7 210.8L54 209l1.6-.6.7 1.6z"/><path fill-opacity=".6" fill="#A3B1BF" d="M55.8 213.4l-.7-1.6 1.6-.7.7 1.6z"/><path d="M55.8 213.4l-.7-1.6 1.6-.7.7 1.6z"/><path fill-opacity=".6" fill="#A3B1BF" d="M50 206.6l-.6-1.7 1.6-.6.7 1.6z"/><path d="M50 206.6l-.6-1.7 1.6-.6.7 1.6z"/><path fill-opacity=".6" fill="#A3B1BF" d="M51.2 209.2l-.7-1.6 1.6-.7.7 1.6z"/><path d="M51.2 209.2l-.7-1.6 1.6-.7.7 1.6z"/><path fill-opacity=".6" fill="#A3B1BF" d="M52.3 211.8l-.7-1.6 1.6-.7.7 1.6z"/><path d="M52.3 211.8l-.7-1.6 1.6-.7.7 1.6z"/><path fill-opacity=".6" fill="#A3B1BF" d="M53.4 214.4l-.7-1.6 1.6-.7.7 1.6z"/><path d="M53.4 214.4l-.7-1.6 1.6-.7.7 1.6z"/><path fill-opacity=".6" fill="#A3B1BF" d="M47.7 207.6L47 206l1.6-.7.7 1.6z"/><path d="M47.7 207.6L47 206l1.6-.7.7 1.6z"/><path fill-opacity=".6" fill="#A3B1BF" d="M48.8 210.2l-.7-1.6 1.6-.7.7 1.6z"/><path d="M48.8 210.2l-.7-1.6 1.6-.7.7 1.6z"/><path fill-opacity=".6" fill="#A3B1BF" d="M49.9 212.8l-.7-1.6 1.6-.7.7 1.6z"/><path d="M49.9 212.8l-.7-1.6 1.6-.7.7 1.6z"/><path fill-opacity=".6" fill="#A3B1BF" d="M51 215.4l-.7-1.6 1.6-.7.7 1.6z"/><path d="M51 215.4l-.7-1.6 1.6-.7.7 1.6z"/><path fill-opacity=".6" fill="#A3B1BF" d="M45.2 208.6l-.6-1.6 1.6-.7.7 1.6z"/><path d="M45.2 208.6l-.6-1.6 1.6-.7.7 1.6z"/><path fill-opacity=".6" fill="#A3B1BF" d="M46.4 211.2l-.7-1.6 1.6-.7.7 1.6z"/><path d="M46.4 211.2l-.7-1.6 1.6-.7.7 1.6z"/><path fill-opacity=".6" fill="#A3B1BF" d="M47.5 213.8l-.7-1.6 1.6-.7.7 1.6z"/><path d="M47.5 213.8l-.7-1.6 1.6-.7.7 1.6z"/><path fill-opacity=".6" fill="#A3B1BF" d="M48.6 216.4l-.7-1.6 1.6-.6.7 1.6z"/><path d="M48.6 216.4l-.7-1.6 1.6-.6.7 1.6z"/><path fill-opacity=".6" fill="#A3B1BF" d="M42.8 209.6l-.7-1.6 1.7-.7.6 1.6z"/><path d="M42.8 209.6l-.7-1.6 1.7-.7.6 1.6z"/><path fill-opacity=".6" fill="#A3B1BF" d="M44 212.2l-.7-1.6 1.6-.7.6 1.7z"/><path d="M44 212.2l-.7-1.6 1.6-.7.6 1.7z"/><path fill-opacity=".6" fill="#A3B1BF" d="M45 214.9l-.6-1.7 1.6-.6.7 1.6z"/><path d="M45 214.9l-.6-1.7 1.6-.6.7 1.6z"/><path fill-opacity=".6" fill="#A3B1BF" d="M46.2 217.5l-.7-1.6 1.6-.7.7 1.6z"/><path d="M46.2 217.5l-.7-1.6 1.6-.7.7 1.6z"/><path fill-opacity=".6" fill="#A3B1BF" d="M58.3 219.2l-.7-1.6 1.6-.7.7 1.6z"/><path d="M58.3 219.2l-.7-1.6 1.6-.7.7 1.6z"/><path fill-opacity=".6" fill="#A3B1BF" d="M59.4 221.8l-.7-1.6 1.6-.7.7 1.7z"/><path d="M59.4 221.8l-.7-1.6 1.6-.7.7 1.7z"/><path fill-opacity=".6" fill="#A3B1BF" d="M60.5 224.4l-.7-1.6 1.6-.6.7 1.6z"/><path d="M60.5 224.4l-.7-1.6 1.6-.6.7 1.6z"/><path fill-opacity=".6" fill="#A3B1BF" d="M61.6 227l-.7-1.5 1.7-.7.6 1.6z"/><path d="M61.6 227l-.7-1.5 1.7-.7.6 1.6z"/><path fill-opacity=".6" fill="#A3B1BF" d="M55.9 220.2l-.7-1.6 1.6-.6.7 1.6z"/><path d="M55.9 220.2l-.7-1.6 1.6-.6.7 1.6z"/><path fill-opacity=".6" fill="#A3B1BF" d="M57 222.9l-.7-1.7 1.6-.6.7 1.6z"/><path d="M57 222.9l-.7-1.7 1.6-.6.7 1.6z"/><path fill-opacity=".6" fill="#A3B1BF" d="M58.1 225.5l-.7-1.6 1.6-.7.7 1.6z"/><path d="M58.1 225.5l-.7-1.6 1.6-.7.7 1.6z"/><path fill-opacity=".6" fill="#A3B1BF" d="M59.2 228l-.7-1.5 1.6-.7.7 1.6z"/><path d="M59.2 228l-.7-1.5 1.6-.7.7 1.6z"/><path fill-opacity=".6" fill="#A3B1BF" d="M53.5 221.3l-.7-1.6 1.6-.7.7 1.6z"/><path d="M53.5 221.3l-.7-1.6 1.6-.7.7 1.6z"/><path fill-opacity=".6" fill="#A3B1BF" d="M54.6 223.9l-.7-1.6 1.6-.7.7 1.6z"/><path d="M54.6 223.9l-.7-1.6 1.6-.7.7 1.6z"/><path fill-opacity=".6" fill="#A3B1BF" d="M55.7 226.5l-.7-1.6 1.6-.7.7 1.6z"/><path d="M55.7 226.5l-.7-1.6 1.6-.7.7 1.6z"/><path fill-opacity=".6" fill="#A3B1BF" d="M56.8 229.1l-.7-1.6 1.6-.7.7 1.6z"/><path d="M56.8 229.1l-.7-1.6 1.6-.7.7 1.6z"/><path fill-opacity=".6" fill="#A3B1BF" d="M51 222.3l-.6-1.6 1.6-.7.7 1.6z"/><path d="M51 222.3l-.6-1.6 1.6-.7.7 1.6z"/><path fill-opacity=".6" fill="#A3B1BF" d="M52.2 225l-.7-1.7 1.6-.7.7 1.6z"/><path d="M52.2 225l-.7-1.7 1.6-.7.7 1.6z"/><path fill-opacity=".6" fill="#A3B1BF" d="M53.3 227.5l-.7-1.6 1.6-.7.7 1.6z"/><path d="M53.3 227.5l-.7-1.6 1.6-.7.7 1.6z"/><path fill-opacity=".6" fill="#A3B1BF" d="M54.4 230.1l-.7-1.6 1.6-.7.7 1.7z"/><path d="M54.4 230.1l-.7-1.6 1.6-.7.7 1.7z"/><path fill-opacity=".6" fill="#A3B1BF" d="M48.6 223.3l-.6-1.6 1.6-.7.7 1.6z"/><path d="M48 221.7l1.6-.7.7 1.6-1.7.7z"/><path fill-opacity=".6" fill="#A3B1BF" d="M49.8 226l-.7-1.7 1.6-.7.7 1.6z"/><path d="M49.8 226l-.7-1.7 1.6-.7.7 1.6z"/><path fill-opacity=".6" fill="#A3B1BF" d="M50.9 228.5l-.7-1.6 1.6-.6.7 1.6z"/><path d="M50.9 228.5l-.7-1.6 1.6-.6.7 1.6z"/><path fill-opacity=".6" fill="#A3B1BF" d="M52 231.2l-.7-1.6 1.6-.7.7 1.6z"/><path d="M52 231.2l-.7-1.6 1.6-.7.7 1.6zM15.8 150.3l14.3-6-18-42.7-14.4 6z"/><path d="M25.5 153.4l-2.6-6.1-1.3.6 2.6 6.1z"/><path stroke="#A3B1BF" stroke-width="1.2" stroke-linejoin="round" d="M25.5 153.4l-2.6-6.1-1.3.6 2.6 6.1z"/><path fill-opacity=".8" fill="#A3B1BF" d="M24.5 156.7l2.7-1.2-1.2-3-2.8 1.2z"/><path stroke="#A3B1BF" stroke-width="1.2" fill="#FFF" stroke-linejoin="round" d="M24.5 156.7l2.7-1.2-1.2-3-2.8 1.2z"/><path fill-opacity=".8" fill="#A3B1BF" d="M25.1 141.1l.7 1.6 1.6-.7-.7-1.6z"/><path d="M25.1 141.1l.7 1.6 1.6-.7-.7-1.6z"/><path fill-opacity=".8" fill="#A3B1BF" d="M24 138.5l.7 1.6 1.6-.7-.7-1.6z"/><path d="M24 138.5l.7 1.6 1.6-.7-.7-1.6z"/><path fill-opacity=".8" fill="#A3B1BF" d="M23 135.9l.6 1.6 1.6-.7-.7-1.6z"/><path d="M23 135.9l.6 1.6 1.6-.7-.7-1.6z"/><path fill-opacity=".8" fill="#A3B1BF" d="M21.8 133.3l.7 1.6 1.6-.7-.7-1.6z"/><path d="M21.8 133.3l.7 1.6 1.6-.7-.7-1.6z"/><path fill-opacity=".8" fill="#A3B1BF" d="M22.7 142.1l.7 1.7 1.6-.7-.7-1.6z"/><path d="M22.7 142.1l.7 1.7 1.6-.7-.7-1.6z"/><path fill-opacity=".8" fill="#A3B1BF" d="M21.6 139.5l.7 1.6 1.6-.6-.7-1.7z"/><path d="M21.6 139.5l.7 1.6 1.6-.6-.7-1.7z"/><path fill-opacity=".8" fill="#A3B1BF" d="M20.5 137l.7 1.5 1.6-.7-.7-1.6z"/><path d="M20.5 137l.7 1.5 1.6-.7-.7-1.6z"/><path fill-opacity=".8" fill="#A3B1BF" d="M19.4 134.3l.7 1.6 1.6-.7-.7-1.6z"/><path d="M19.4 134.3l.7 1.6 1.6-.7-.7-1.6z"/><path fill-opacity=".8" fill="#A3B1BF" d="M20.3 143.2l.7 1.6 1.6-.7-.7-1.6z"/><path d="M20.3 143.2l.7 1.6 1.6-.7-.7-1.6z"/><path fill-opacity=".8" fill="#A3B1BF" d="M19.2 140.6l.7 1.6 1.6-.7-.7-1.6z"/><path d="M19.2 140.6l.7 1.6 1.6-.7-.7-1.6z"/><path fill-opacity=".8" fill="#A3B1BF" d="M18 138l.8 1.5 1.6-.6-.7-1.6z"/><path d="M18 138l.8 1.5 1.6-.6-.7-1.6z"/><path fill-opacity=".8" fill="#A3B1BF" d="M17 135.3l.7 1.6 1.6-.7-.7-1.6z"/><path d="M17 135.3l.7 1.6 1.6-.7-.7-1.6z"/><path fill-opacity=".8" fill="#A3B1BF" d="M17.9 144.2l.7 1.6 1.6-.7-.7-1.6z"/><path d="M17.9 144.2l.7 1.6 1.6-.7-.7-1.6z"/><path fill-opacity=".8" fill="#A3B1BF" d="M16.8 141.6l.7 1.6 1.6-.7-.7-1.6z"/><path d="M16.8 141.6l.7 1.6 1.6-.7-.7-1.6z"/><path fill-opacity=".8" fill="#A3B1BF" d="M15.7 139l.7 1.6 1.6-.7-.7-1.6z"/><path d="M15.7 139l.7 1.6 1.6-.7-.7-1.6z"/><path fill-opacity=".8" fill="#A3B1BF" d="M14.6 136.3l.6 1.7 1.7-.7-.7-1.6z"/><path d="M14.6 136.3l.6 1.7 1.7-.7-.7-1.6z"/><path fill-opacity=".8" fill="#A3B1BF" d="M15.5 145.2l.7 1.6 1.6-.7-.7-1.6z"/><path d="M15.5 145.2l.7 1.6 1.6-.7-.7-1.6z"/><path fill-opacity=".8" fill="#A3B1BF" d="M14.4 142.6l.7 1.6 1.6-.7-.7-1.6z"/><path d="M14.4 142.6l.7 1.6 1.6-.7-.7-1.6z"/><path fill-opacity=".8" fill="#A3B1BF" d="M13.3 140l.6 1.6 1.7-.7-.7-1.6z"/><path d="M13.3 140l.6 1.6 1.7-.7-.7-1.6z"/><path fill-opacity=".8" fill="#A3B1BF" d="M12.2 137.4l.6 1.6 1.6-.7-.6-1.6z"/><path d="M12.2 137.4l.6 1.6 1.6-.7-.6-1.6z"/><path fill-opacity=".8" fill="#A3B1BF" d="M19.3 127.4l.7 1.6 1.6-.6-.7-1.7z"/><path d="M19.3 127.4l.7 1.6 1.6-.6-.7-1.7z"/><path fill-opacity=".8" fill="#A3B1BF" d="M18.2 124.8l.7 1.6 1.6-.7-.7-1.6z"/><path d="M18.2 124.8l.7 1.6 1.6-.7-.7-1.6z"/><path fill-opacity=".8" fill="#A3B1BF" d="M17.1 122.2l.7 1.6 1.6-.7-.7-1.6z"/><path d="M17.1 122.2l.7 1.6 1.6-.7-.7-1.6z"/><path fill-opacity=".8" fill="#A3B1BF" d="M16 119.6l.7 1.6 1.6-.7-.7-1.6z"/><path d="M16 119.6l.7 1.6 1.6-.7-.7-1.6z"/><path fill-opacity=".8" fill="#A3B1BF" d="M17 128.5l.6 1.6 1.6-.7-.7-1.6z"/><path d="M17 128.5l.6 1.6 1.6-.7-.7-1.6z"/><path fill-opacity=".8" fill="#A3B1BF" d="M15.8 125.8l.7 1.6 1.6-.6-.7-1.6z"/><path d="M15.8 125.8l.7 1.6 1.6-.6-.7-1.6z"/><path fill-opacity=".8" fill="#A3B1BF" d="M14.7 123.2l.7 1.6 1.6-.7-.7-1.6z"/><path d="M14.7 123.2l.7 1.6 1.6-.7-.7-1.6z"/><path fill-opacity=".8" fill="#A3B1BF" d="M13.6 120.6l.7 1.6 1.6-.7-.7-1.6z"/><path d="M13.6 120.6l.7 1.6 1.6-.7-.7-1.6z"/><path fill-opacity=".8" fill="#A3B1BF" d="M14.5 129.5l.7 1.6 1.6-.7-.7-1.6z"/><path d="M14.5 129.5l.7 1.6 1.6-.7-.7-1.6z"/><path fill-opacity=".8" fill="#A3B1BF" d="M13.4 126.9l.7 1.6 1.6-.7-.7-1.6z"/><path d="M13.4 126.9l.7 1.6 1.6-.7-.7-1.6z"/><path fill-opacity=".8" fill="#A3B1BF" d="M12.3 124.2l.7 1.7 1.6-.7-.7-1.6z"/><path d="M12.3 124.2l.7 1.7 1.6-.7-.7-1.6z"/><path fill-opacity=".8" fill="#A3B1BF" d="M11.2 121.6l.6 1.6 1.7-.6-.7-1.7z"/><path d="M11.2 121.6l.6 1.6 1.7-.6-.7-1.7z"/><path fill-opacity=".8" fill="#A3B1BF" d="M12 130.5l.8 1.6 1.6-.7-.7-1.6z"/><path d="M12 130.5l.8 1.6 1.6-.7-.7-1.6z"/><path fill-opacity=".8" fill="#A3B1BF" d="M11 127.9l.7 1.6 1.6-.7-.7-1.6z"/><path d="M11 127.9l.7 1.6 1.6-.7-.7-1.6z"/><path fill-opacity=".8" fill="#A3B1BF" d="M9.9 125.3l.6 1.6 1.7-.7-.7-1.6z"/><path d="M9.9 125.3l.6 1.6 1.7-.7-.7-1.6z"/><path fill-opacity=".8" fill="#A3B1BF" d="M8.8 122.7l.6 1.6 1.6-.7-.6-1.6z"/><path d="M8.8 122.7l.6 1.6 1.6-.7-.6-1.6z"/><path fill-opacity=".8" fill="#A3B1BF" d="M9.7 131.5l.7 1.6 1.6-.7-.7-1.6z"/><path d="M9.7 131.5l.7 1.6 1.6-.7-.7-1.6z"/><path fill-opacity=".8" fill="#A3B1BF" d="M8.6 129l.6 1.5 1.6-.7-.6-1.6z"/><path d="M8.6 129l.6 1.5 1.6-.7-.6-1.6z"/><path fill-opacity=".8" fill="#A3B1BF" d="M7.4 126.3l.7 1.6 1.6-.7-.6-1.6z"/><path d="M7.4 126.3l.7 1.6 1.6-.7-.6-1.6z"/><path fill-opacity=".8" fill="#A3B1BF" d="M6.3 123.7l.7 1.6 1.6-.7L8 123z"/><path d="M6.3 123.7l.7 1.6 1.6-.7L8 123z"/><path fill-opacity=".8" fill="#A3B1BF" d="M13.5 113.7l.7 1.6 1.6-.6-.7-1.6z"/><path d="M13.5 113.7l.7 1.6 1.6-.6-.7-1.6z"/><path fill-opacity=".8" fill="#A3B1BF" d="M12.4 111.1l.7 1.6 1.6-.7-.7-1.6z"/><path d="M12.4 111.1l.7 1.6 1.6-.7-.7-1.6z"/><path fill-opacity=".8" fill="#A3B1BF" d="M11.3 108.5l.7 1.6 1.6-.7-.7-1.6z"/><path d="M11.3 108.5l.7 1.6 1.6-.7-.7-1.6z"/><path fill-opacity=".8" fill="#A3B1BF" d="M10.2 105.9l.7 1.6 1.6-.7-.7-1.6z"/><path fill="#B2BECA" d="M10.9 107.5l1.6-.7-.7-1.6-1.6.7z"/><path fill-opacity=".8" fill="#A3B1BF" d="M11 114.8l.8 1.6 1.6-.7-.7-1.6z"/><path d="M11 114.8l.8 1.6 1.6-.7-.7-1.6z"/><path fill-opacity=".8" fill="#A3B1BF" d="M10 112.1l.7 1.7 1.6-.7-.7-1.6z"/><path d="M10 112.1l.7 1.7 1.6-.7-.7-1.6z"/><path fill-opacity=".8" fill="#A3B1BF" d="M8.9 109.5l.7 1.6 1.6-.6-.7-1.7z"/><path d="M8.9 109.5l.7 1.6 1.6-.6-.7-1.7z"/><path fill-opacity=".8" fill="#A3B1BF" d="M7.8 107l.6 1.5 1.7-.7-.7-1.6z"/><path d="M7.8 107l.6 1.5 1.7-.7-.7-1.6z"/><path fill-opacity=".8" fill="#A3B1BF" d="M8.7 115.8l.7 1.6 1.6-.7-.7-1.6z"/><path d="M8.7 115.8l.7 1.6 1.6-.7-.7-1.6z"/><path fill-opacity=".8" fill="#A3B1BF" d="M7.6 113.2l.7 1.6 1.6-.7-.7-1.6z"/><path d="M7.6 113.2l.7 1.6 1.6-.7-.7-1.6z"/><path fill-opacity=".8" fill="#A3B1BF" d="M6.5 110.6l.6 1.6 1.7-.7-.7-1.6z"/><path d="M6.5 110.6l.6 1.6 1.7-.7-.7-1.6z"/><path fill-opacity=".8" fill="#A3B1BF" d="M5.4 108l.6 1.5 1.6-.6-.6-1.6z"/><path d="M5.4 108l.6 1.5 1.6-.6-.6-1.6z"/><path fill-opacity=".8" fill="#A3B1BF" d="M6.3 116.8l.7 1.6 1.6-.7-.7-1.6z"/><path d="M6.3 116.8l.7 1.6 1.6-.7-.7-1.6z"/><path fill-opacity=".8" fill="#A3B1BF" d="M5.2 114.2l.6 1.6 1.6-.7-.6-1.6z"/><path d="M5.2 114.2l.6 1.6 1.6-.7-.6-1.6z"/><path fill-opacity=".8" fill="#A3B1BF" d="M4 111.6l.7 1.6 1.6-.7-.6-1.6z"/><path d="M4 111.6l.7 1.6 1.6-.7-.6-1.6z"/><path fill-opacity=".8" fill="#A3B1BF" d="M3 109l.6 1.6 1.6-.7-.7-1.6z"/><path d="M3 109l.6 1.6 1.6-.7-.7-1.6z"/><path fill-opacity=".8" fill="#A3B1BF" d="M3.9 117.8l.6 1.6 1.6-.6-.6-1.7z"/><path d="M3.9 117.8l.6 1.6 1.6-.6-.6-1.7z"/><path fill-opacity=".8" fill="#A3B1BF" d="M2.7 115.2l.7 1.6 1.6-.7-.6-1.6z"/><path d="M2.7 115.2l.7 1.6 1.6-.7-.6-1.6z"/><path fill-opacity=".8" fill="#A3B1BF" d="M1.6 112.6l.7 1.6 1.6-.7-.7-1.6z"/><path d="M1.6 112.6l.7 1.6 1.6-.7-.7-1.6z"/><path fill-opacity=".8" fill="#A3B1BF" d="M.5 110l.7 1.6 1.6-.7-.7-1.6z"/><path d="M.5 110l.7 1.6 1.6-.7-.7-1.6z"/><path d="M83.6 145.9c-1.2-3-1.7-5.5-1.1-5.8.6-.3 2.1 1.9 3.4 4.8 1.2 3 1.7 5.5 1.1 5.8-.6.3-2.1-2-3.4-4.8z" fill="#F5F5F5"/><path d="M83.6 145.9c-1.2-3-1.7-5.5-1.1-5.8.6-.3 2.1 1.9 3.4 4.8 1.2 3 1.7 5.5 1.1 5.8-.6.3-2.1-2-3.4-4.8z" stroke="#A3B1BF" stroke-width="1.2" stroke-linejoin="round"/><path d="M88.5 143.8c-2.4-5.9-3.5-11-2.2-11.6 1.2-.5 4.2 3.8 6.7 9.7 2.5 5.8 3.5 11 2.3 11.5-1.3.6-4.3-3.8-6.8-9.6z" fill="#F5F5F5"/><path d="M88.5 143.8c-2.4-5.9-3.5-11-2.2-11.6 1.2-.5 4.2 3.8 6.7 9.7 2.5 5.8 3.5 11 2.3 11.5-1.3.6-4.3-3.8-6.8-9.6z" stroke="#A3B1BF" stroke-width="1.2" stroke-linejoin="round"/><path d="M96.5 140.4c-3.3-7.8-4.7-14.8-3-15.5 1.6-.7 5.6 5.1 9 13 3.3 7.8 4.7 14.7 3 15.4-1.6.7-5.7-5-9-12.9z" fill-opacity=".3" fill="#F5F5F5"/><path d="M96.5 140.4c-3.3-7.8-4.7-14.8-3-15.5 1.6-.7 5.6 5.1 9 13 3.3 7.8 4.7 14.7 3 15.4-1.6.7-5.7-5-9-12.9z" stroke="#A3B1BF" stroke-width="1.2" stroke-linejoin="round"/><path d="M37.8 64c.6.2.6 1.8 0 3.9 2 .8 3.2 1.9 3 2.5-.2.6-1.9.5-4 0-.8 1.8-1.8 3-2.3 2.9-.6-.2-.6-1.8 0-3.8-2-.9-3.2-2-3-2.5.2-.6 1.8-.6 3.9 0 .9-2 1.9-3.2 2.4-3z" fill-opacity=".4" fill="#A3B1BF" opacity=".8"/><path d="M75.8 252.7l-.2.3a1.9 1.9 0 0 1-3.2-1l-.1-.3-.4-.2a1.9 1.9 0 0 1 0-3.3l.3-.2v-.4a1.9 1.9 0 0 1 3.1-1.1l.3.2h.4a1.9 1.9 0 0 1 2 2.6l-.1.3.2.4a1.9 1.9 0 0 1-1.9 2.7h-.4zM316 92.8a1.2 1.2 0 0 1-1.7-1.2 1.2 1.2 0 0 1 .6-2 1.2 1.2 0 0 1 2-.1 1.2 1.2 0 0 1 .8 2 1.2 1.2 0 0 1-1.6 1.3zM60.1 30.4l-.6.1a1.9 1.9 0 0 1-2-2.7l.4-.5-.3-.6a1.9 1.9 0 0 1 2-2.7l.6.1.5-.4a1.9 1.9 0 0 1 3.2 1v.7l.6.3a1.9 1.9 0 0 1 0 3.3l-.6.3-.1.6a1.9 1.9 0 0 1-3.2 1l-.5-.5zM288.3 234.8l-.4-.1a1.9 1.9 0 0 1-.7-3.3l.3-.2v-.4a1.9 1.9 0 0 1 2.9-1.7l.3.2.4-.1a1.9 1.9 0 0 1 2.5 2.2l-.1.4.3.3a1.9 1.9 0 0 1-1.4 3h-.4l-.2.4a1.9 1.9 0 0 1-3.3-.3l-.2-.4zM321.7 112.9a1.2 1.2 0 0 1-2-.9 1.2 1.2 0 0 1 .3-2 1.2 1.2 0 0 1 2-.5 1.2 1.2 0 0 1 1 1.8 1.2 1.2 0 0 1-1.3 1.6z" fill-opacity=".4" fill="#A3B1BF"/><path d="M172 169.7a45 45 0 1 0 0-90 45 45 0 0 0 0 90z" fill-opacity=".7" fill="#A3B1BF"/><path d="M157.8 108.3c5.6-3.3 15.9-7.2 12.6-13-3.2-5.6-15.2-4.8-20.9-1.5-5.6 3.3-11.7 13-8.4 18.7 3.3 5.7 11-1 16.7-4.2M183 99.8a4.9 4.9 0 1 0 0-9.8 4.9 4.9 0 0 0 0 9.8z" fill="#FAFAFA"/></g></svg>