<?xml version="1.0" encoding="UTF-8"?>
<svg width="32px" height="32px" viewBox="0 0 32 32" version="1.1" xmlns="http://www.w3.org/2000/svg" xmlns:xlink="http://www.w3.org/1999/xlink">
    <!-- Generator: Sketch 59.1 (86144) - https://sketch.com -->
    <title>emptySearch</title>
    <desc>Created with Sketch.</desc>
    <g id="admin/设置" stroke="none" stroke-width="1" fill="none" fill-rule="evenodd">
        <g id="项目管理/detail/成员" transform="translate(-2325.000000, -166.000000)" fill="#DBDFE7" fill-rule="nonzero">
            <g id="编组" transform="translate(2325.000000, 166.000000)">
                <path d="M31.5129706,29.0968446 L25.9547873,23.5381836 C30.4730566,17.8055482 30.0403814,9.61104263 24.9435489,4.38617818 C19.8467164,-0.838686271 11.6661138,-1.47382329 5.82403722,2.9017509 C-0.0180393858,7.2773251 -1.71012321,15.3068657 1.86933876,21.668204 C5.44880074,28.0295423 13.1899161,30.7502028 19.9616913,28.0268676 C20.5583478,27.786009 20.9811957,27.2451066 21.0709523,26.6079131 C21.1607088,25.9707196 20.9037377,25.3340399 20.3968377,24.9377051 C19.8899376,24.5413702 19.2101187,24.4455929 18.6134621,24.6864516 C13.3958361,26.804273 7.42200047,24.6311669 4.78423079,19.6557832 C2.14646112,14.6803995 3.69998342,8.51587278 8.38058339,5.38510833 C13.0611834,2.25434388 19.3513021,3.17240807 22.9419995,7.51039648 C26.532697,11.8483849 26.2597859,18.1998212 22.3102195,22.2137608 C22.3008677,22.2240952 22.2921533,22.2349891 22.2841247,22.2463821 C22.2759617,22.2535911 22.2672356,22.2601361 22.2580299,22.2659548 C21.6746842,22.8548974 21.599439,23.7781064 22.0797158,24.4537533 C22.1502189,24.5652739 22.2326093,24.6688176 22.3254414,24.7625678 C22.3580598,24.7930143 22.3950274,24.8169366 22.4298204,24.8452083 L29.0883327,31.5042929 C29.7546664,32.1652357 30.8292405,32.1652357 31.4955741,31.5042929 C32.1612998,30.8426886 32.1690656,29.7680022 31.5129706,29.0968446 L31.5129706,29.0968446 Z" id="emptySearch"></path>
            </g>
        </g>
    </g>
</svg>