<?xml version="1.0" encoding="UTF-8"?>
<svg width="54px" height="72px" viewBox="0 0 54 72" version="1.1" xmlns="http://www.w3.org/2000/svg" xmlns:xlink="http://www.w3.org/1999/xlink">
    <!-- Generator: Sketch 58 (84663) - https://sketch.com -->
    <title>light</title>
    <desc>Created with Sketch.</desc>
    <g id="界面及规范" stroke="none" stroke-width="1" fill="none" fill-rule="evenodd">
        <g id="页面状态" transform="translate(-293.000000, -103.000000)">
            <g id="light" transform="translate(293.000000, 104.000000)">
                <ellipse id="形状结合" fill="#F5F5F5" fill-rule="nonzero" cx="18.5" cy="65" rx="18.5" ry="6"></ellipse>
                <path d="M33.9020411,30.6482188 L27.8600475,30.6482188 C26.5633639,30.6482188 22.8940253,31.2667663 21.6525197,30.5137519 C21.4042186,29.653164 22.2043,28.0933483 22.4250121,27.3403339 C23.0595593,25.1619706 23.6665176,23.0105008 24.3010649,20.8052442 L27.0047881,11.3118835 C27.3634452,10.0747883 25.7081045,9.53692089 25.0183792,10.4781889 L3.16788162,39.7112855 C2.6712794,40.3836198 3.36100471,41.3248879 4.13349705,41.3248879 L12.9895699,41.3248879 C13.5965282,41.3248879 15.9415942,40.9483806 16.3278404,41.5131415 C16.6864976,41.9703288 15.9967722,43.3956776 15.8588272,43.9066517 C14.2034865,49.5004733 12.6033238,55.0942949 11.0031611,60.6881165 C10.6445039,61.9252117 12.2998446,62.4630791 12.9895699,61.5218111 L34.8124785,32.2887145 C35.3366697,31.5894868 34.6745334,30.6482188 33.9020411,30.6482188 Z" id="路径" stroke="#D9D9D9" stroke-width="1.03225806" fill="#FAFAFA" fill-rule="nonzero"></path>
                <path d="M29,25.2126863 C31.690364,24.4185999 33.9323339,21.1785809 35.7259099,15.4926292 C37.5194858,9.80667761 40.2775159,6.38002998 44,5.21268632" id="路径-2" stroke="#D9D9D9" stroke-dasharray="2,2"></path>
                <rect id="矩形" stroke="#D9D9D9" fill="#FFFFFF" x="48" y="0" width="5" height="5" rx="2.5"></rect>
            </g>
        </g>
    </g>
</svg>