<?xml version="1.0" encoding="UTF-8"?>
<svg width="81px" height="74px" viewBox="0 0 81 74" version="1.1" xmlns="http://www.w3.org/2000/svg" xmlns:xlink="http://www.w3.org/1999/xlink">
    <!-- Generator: Sketch 59.1 (86144) - https://sketch.com -->
    <title>pic-noproject</title>
    <desc>Created with Sketch.</desc>
    <g id="项目切换" stroke="none" stroke-width="1" fill="none" fill-rule="evenodd">
        <g id="无状态提示" transform="translate(-577.000000, -314.000000)" fill-rule="nonzero">
            <g id="编组" transform="translate(577.000000, 314.000000)">
                <g id="pic-noproject" transform="translate(0.000000, 0.000000)">
                    <path d="M3.30559536,3.55271368e-15 L52.8895265,3.55271368e-15 C54.7151565,3.55271368e-15 56.195122,1.49232944 56.195122,3.3332111 L56.195122,19.9992665 L49.5839312,19.9992665 L49.5839312,6.6664222 L6.6111908,6.6664222 L6.6111908,56.6645883 L13.2223816,56.6645883 L13.2223816,63.3310105 L3.30559536,63.3310105 C1.47996544,63.3310105 1.49213975e-13,61.838681 1.49213975e-13,59.9977994 L1.49213975e-13,3.3332111 C1.49213975e-13,1.49232947 1.47996544,3.55271368e-15 3.30559536,3.55271368e-15 Z M19.8335725,16.6660554 L19.8335725,9.99963323 L36.3615495,9.99963323 L36.3615495,16.6660554 L19.8335725,16.6660554 Z" id="形状" fill="#C8CED9"></path>
                    <path d="M20.2183507,59.4199946 L60.3577236,59.4199946 L60.3577236,29.7786116 L20.2183507,29.7786116 L20.2183507,59.4199946 Z M16.873403,23.1916376 L63.7026714,23.1916376 C65.550035,23.1916376 67.047619,24.666182 67.047619,26.4851247 L67.047619,62.7134816 C67.047619,64.5324242 65.550035,66.0069686 63.7026714,66.0069686 L16.873403,66.0069686 C15.0260394,66.0069686 13.5284553,64.5324242 13.5284553,62.7134816 L13.5284553,26.4851247 C13.5284553,24.666182 15.0260394,23.1916376 16.873403,23.1916376 L16.873403,23.1916376 Z M50.3228804,56.1265076 L30.253194,56.1265076 L30.2331243,47.8499748 C32.872288,46.8619287 37.3712428,46.2625141 40.2746573,46.2493401 C43.178072,46.2328727 47.656957,46.796059 50.3028107,47.7511702 L50.3228804,56.1265076 Z M40.2880372,44.5993031 C37.5169917,44.5993031 35.2706156,42.3874866 35.2706156,39.6590726 C35.2706156,36.9306586 37.5169917,34.7188421 40.2880372,34.7188421 C43.0590826,34.7188421 45.3054588,36.9306586 45.3054588,39.6590726 C45.3054588,42.3874866 43.0590826,44.5993031 40.2880372,44.5993031 Z" id="形状" fill="#DBDFE7"></path>
                    <g id="10-icon/16px/info" transform="translate(55.619048, 48.000000)">
                        <g id="info-circle-o">
                            <rect id="Rectangle-path" fill="#FFFFFF" opacity="0" x="0" y="0" width="24.3809524" height="24.3809524"></rect>
                            <path d="M12.1904762,1.14285714 C18.2914267,1.14285714 23.2380952,6.08952565 23.2380952,12.1904762 C23.2380952,18.2914267 18.2914267,23.2380952 12.1904762,23.2380952 C6.08952565,23.2380952 1.14285714,18.2914267 1.14285714,12.1904762 C1.14285714,6.08952565 6.08952565,1.14285714 12.1904762,1.14285714 Z" id="Combined-Shape" stroke="#F4F6F9" stroke-width="3.80952381" fill="#FF9D46"></path>
                            <path d="M13.047619,10.6666667 C13.2047619,10.6666667 13.3333333,10.7619048 13.3333333,10.8783069 L13.3333333,10.8783069 L13.3333333,18.0740741 C13.3333333,18.1904762 13.2047619,18.2857143 13.047619,18.2857143 L13.047619,18.2857143 L11.3333333,18.2857143 C11.1761905,18.2857143 11.047619,18.1904762 11.047619,18.0740741 L11.047619,18.0740741 L11.047619,10.8783069 C11.047619,10.7619048 11.1761905,10.6666667 11.3333333,10.6666667 L11.3333333,10.6666667 Z M12.1904762,6.0952381 C13.032053,6.0952381 13.7142857,6.77747086 13.7142857,7.61904762 C13.7142857,8.46062438 13.032053,9.14285714 12.1904762,9.14285714 C11.3488994,9.14285714 10.6666667,8.46062438 10.6666667,7.61904762 C10.6666667,6.77747086 11.3488994,6.0952381 12.1904762,6.0952381 Z" id="形状结合" fill="#F4F6F9"></path>
                        </g>
                    </g>
                </g>
            </g>
        </g>
    </g>
</svg>